<svg fill="none" width="48" height="48" viewBox="0 0 49 39" xmlns="http://www.w3.org/2000/svg"><path d="M0.25 15.4436C0.25 14.0629 1.36929 12.9436 2.75 12.9436C4.13071 12.9436 5.25 14.0629 5.25 15.4436V22.8186C5.25 24.1993 4.13071 25.3186 2.75 25.3186C1.36929 25.3186 0.25 24.1993 0.25 22.8186V15.4436Z" fill="white"/><rect x="10.9673" y="7.125" width="5" height="24.0125" rx="2.5" fill="white"/><path d="M21.6848 2.75C21.6848 1.36929 22.8041 0.25 24.1848 0.25C25.5655 0.25 26.6848 1.36929 26.6848 2.75V35.5125C26.6848 36.8932 25.5655 38.0125 24.1848 38.0125C22.8041 38.0125 21.6848 36.8932 21.6848 35.5125V2.75Z" fill="white"/><path d="M32.4016 9.18018C32.4016 7.79947 33.5209 6.68018 34.9016 6.68018C36.2823 6.68018 37.4016 7.79946 37.4016 9.18018V29.0819C37.4016 30.4626 36.2823 31.5819 34.9016 31.5819C33.5209 31.5819 32.4016 30.4626 32.4016 29.0819V9.18018Z" fill="white"/><path d="M43.1191 15.4436C43.1191 14.0629 44.2384 12.9436 45.6191 12.9436C46.9999 12.9436 48.1191 14.0629 48.1191 15.4436V22.8186C48.1191 24.1993 46.9999 25.3186 45.6191 25.3186C44.2384 25.3186 43.1191 24.1993 43.1191 22.8186V15.4436Z" fill="white"/></svg>
