<svg fill="none" width="16" height="16" viewBox="0 0 16 16" xmlns="http://www.w3.org/2000/svg"><path fill-rule="evenodd" clip-rule="evenodd" d="M11.4367 6.92943L8.625 9.69575L8.625 2C8.625 1.65482 8.34518 1.375 8 1.375C7.65482 1.375 7.375 1.65482 7.375 2L7.375 9.69575L4.56333 6.92943C4.31728 6.68735 3.92156 6.69057 3.67948 6.93662C3.43739 7.18267 3.44061 7.57839 3.68667 7.82047L7.12333 11.2017C7.60979 11.6803 8.39021 11.6803 8.87667 11.2017L12.3133 7.82047C12.5594 7.57839 12.5626 7.18267 12.3205 6.93662C12.0784 6.69057 11.6827 6.68735 11.4367 6.92943ZM3.4375 13.375C3.09232 13.375 2.8125 13.6548 2.8125 14C2.8125 14.3451 3.09232 14.625 3.4375 14.625H12.6875C13.0327 14.625 13.3125 14.3451 13.3125 14C13.3125 13.6548 13.0327 13.375 12.6875 13.375H3.4375Z" fill="#262626"/></svg>