<svg fill="none" width="24" height="24" viewBox="0 0 24 24" xmlns="http://www.w3.org/2000/svg"><path d="M2.03906 12.9474C2.03906 11.8536 2.21159 10.8087 2.55664 9.81261C2.90169 8.81001 3.38672 7.89204 4.01172 7.0587C4.63672 6.21886 5.36914 5.4962 6.20898 4.89074C6.42383 4.72797 6.64844 4.66938 6.88281 4.71495C7.11719 4.75402 7.29622 4.8712 7.41992 5.06652C7.54362 5.26834 7.57617 5.47667 7.51758 5.69152C7.46549 5.90636 7.33854 6.08865 7.13672 6.23839C6.44661 6.73318 5.8444 7.32563 5.33008 8.01574C4.81576 8.70584 4.41536 9.47081 4.12891 10.3107C3.84245 11.144 3.69922 12.0229 3.69922 12.9474C3.69922 14.0997 3.91081 15.1804 4.33398 16.1896C4.76367 17.1922 5.35612 18.0743 6.11133 18.836C6.87305 19.5913 7.75521 20.1804 8.75781 20.6036C9.76693 21.0333 10.8477 21.2482 12 21.2482C13.1523 21.2482 14.2298 21.0333 15.2324 20.6036C16.235 20.1804 17.1139 19.5913 17.8691 18.836C18.6309 18.0743 19.2233 17.1922 19.6465 16.1896C20.0762 15.1804 20.291 14.0997 20.291 12.9474C20.291 11.9578 20.1315 11.0235 19.8125 10.1446C19.4935 9.25922 19.0443 8.45844 18.4648 7.7423C17.8919 7.02615 17.2148 6.42068 16.4336 5.92589C15.6589 5.4311 14.8092 5.07954 13.8848 4.8712V6.25792C13.8848 6.60949 13.7806 6.83084 13.5723 6.92199C13.3704 7.00662 13.1361 6.95128 12.8691 6.75597L9.76367 4.56847C9.53581 4.40571 9.42188 4.22016 9.42188 4.01183C9.42188 3.8035 9.53581 3.6212 9.76367 3.46495L12.8789 1.28722C13.1458 1.09842 13.3802 1.04633 13.582 1.13097C13.7839 1.21561 13.8848 1.4337 13.8848 1.78527V3.17199C15.0241 3.39985 16.082 3.81001 17.0586 4.40245C18.0417 4.98839 18.8978 5.72081 19.627 6.59972C20.3626 7.47212 20.9355 8.44868 21.3457 9.52941C21.7559 10.6101 21.9609 11.7495 21.9609 12.9474C21.9609 14.3081 21.7005 15.5906 21.1797 16.795C20.6589 17.9995 19.9395 19.0607 19.0215 19.9786C18.1035 20.8901 17.0423 21.6062 15.8379 22.1271C14.64 22.6479 13.3607 22.9083 12 22.9083C10.6393 22.9083 9.35677 22.6479 8.15234 22.1271C6.95443 21.6062 5.89648 20.8901 4.97852 19.9786C4.06055 19.0607 3.34115 17.9995 2.82031 16.795C2.29948 15.5906 2.03906 14.3081 2.03906 12.9474ZM9.44141 16.961C9.23307 16.961 9.06706 16.8959 8.94336 16.7657C8.82617 16.629 8.76758 16.4532 8.76758 16.2384V10.7208H8.74805L7.78125 11.4435C7.72266 11.4825 7.66732 11.5151 7.61523 11.5411C7.56315 11.5607 7.5013 11.5704 7.42969 11.5704C7.29297 11.5704 7.17904 11.5248 7.08789 11.4337C6.99674 11.336 6.95117 11.2156 6.95117 11.0724C6.95117 10.864 7.05208 10.685 7.25391 10.5353L8.35742 9.71495C8.51367 9.59777 8.66667 9.50011 8.81641 9.42199C8.97266 9.34386 9.14844 9.3048 9.34375 9.3048C9.58464 9.3048 9.77344 9.37316 9.91016 9.50988C10.0534 9.64008 10.125 9.82563 10.125 10.0665V16.2384C10.125 16.4467 10.0632 16.6193 9.93945 16.756C9.82227 16.8927 9.65625 16.961 9.44141 16.961ZM14.2461 17.0196C13.7773 17.0196 13.3118 16.8894 12.8496 16.629C12.3939 16.3686 12.1042 16.004 11.9805 15.5353C11.9674 15.4832 11.9544 15.4278 11.9414 15.3693C11.9349 15.3107 11.9316 15.2521 11.9316 15.1935C11.9316 15.0177 11.9805 14.881 12.0781 14.7833C12.1823 14.6791 12.319 14.6271 12.4883 14.6271C12.7487 14.6271 12.944 14.767 13.0742 15.047C13.1719 15.3009 13.3184 15.5125 13.5137 15.6818C13.709 15.851 13.9499 15.9357 14.2363 15.9357C14.6139 15.9357 14.9036 15.7859 15.1055 15.4864C15.3073 15.1804 15.4082 14.8224 15.4082 14.4122C15.4082 14.0216 15.3105 13.6798 15.1152 13.3868C14.9264 13.0873 14.64 12.9376 14.2559 12.9376C14.0605 12.9376 13.8815 12.9832 13.7188 13.0743C13.556 13.1655 13.416 13.2892 13.2988 13.4454C13.2012 13.5626 13.1068 13.6538 13.0156 13.7189C12.931 13.7775 12.8105 13.8068 12.6543 13.8068C12.4395 13.8068 12.2767 13.7351 12.166 13.5919C12.0618 13.4487 12.0163 13.2664 12.0293 13.045L12.2441 10.2032C12.2702 9.6824 12.5273 9.42199 13.0156 9.42199H15.8477C16.0104 9.42199 16.1406 9.47407 16.2383 9.57824C16.3359 9.67589 16.3848 9.8061 16.3848 9.96886C16.3848 10.1316 16.3359 10.2651 16.2383 10.3693C16.1406 10.4669 16.0104 10.5157 15.8477 10.5157H13.3574L13.1914 12.7423H13.2305C13.3607 12.4884 13.5527 12.2931 13.8066 12.1564C14.0671 12.0131 14.36 11.9415 14.6855 11.9415C15.3301 11.9415 15.8281 12.1824 16.1797 12.6642C16.5378 13.1459 16.7168 13.7156 16.7168 14.3732C16.7168 15.1349 16.4954 15.7664 16.0527 16.2677C15.61 16.769 15.0078 17.0196 14.2461 17.0196Z" fill="#262626" fill-opacity="0.85"/></svg>