<svg fill="none" width="32" height="32" viewBox="0 0 40 40" xmlns="http://www.w3.org/2000/svg">
    <path fill-rule="evenodd" clip-rule="evenodd"
          d="M20 40C31.0457 40 40 31.0457 40 20C40 8.9543 31.0457 0 20 0C8.9543 0 0 8.9543 0 20C0 31.0457 8.9543 40 20 40ZM15.8905 26.1258C16.0576 26.3283 16.2804 26.4296 16.5589 26.4296C16.7108 26.4296 16.8551 26.4017 16.9919 26.346C17.1286 26.2954 17.2729 26.2245 17.4248 26.1334L26.2811 21.014C26.6002 20.8267 26.8204 20.6621 26.9419 20.5203C27.0685 20.3735 27.1318 20.1988 27.1318 19.9962C27.1318 19.7937 27.0685 19.6215 26.9419 19.4797C26.8204 19.3329 26.6002 19.1683 26.2811 18.986L17.4248 13.8591C17.2729 13.773 17.1286 13.7046 16.9919 13.654C16.8551 13.5983 16.7108 13.5704 16.5589 13.5704C16.2804 13.5704 16.0576 13.6692 15.8905 13.8667C15.7285 14.0641 15.6475 14.3275 15.6475 14.6566V25.3358C15.6475 25.665 15.7285 25.9283 15.8905 26.1258Z"
          fill="#262626"/>
</svg>
