<svg fill="none" width="24" height="24" viewBox="0 0 24 24" xmlns="http://www.w3.org/2000/svg"><path d="M2.03906 12.9446C2.03906 11.7467 2.24414 10.6074 2.6543 9.52666C3.06445 8.44593 3.63411 7.46936 4.36328 6.59697C5.09896 5.71806 5.95508 4.98564 6.93164 4.3997C7.91471 3.80725 8.97591 3.3971 10.1152 3.16923V1.79228C10.1152 1.44072 10.2161 1.22262 10.418 1.13798C10.6263 1.04684 10.8672 1.09892 11.1406 1.29423L14.2461 3.48173C14.474 3.63798 14.5846 3.82353 14.5781 4.03837C14.5781 4.24671 14.4674 4.42574 14.2461 4.57548L11.1309 6.76298C10.8639 6.95179 10.6263 7.00387 10.418 6.91923C10.2161 6.82809 10.1152 6.60999 10.1152 6.26494V4.86845C9.19727 5.07679 8.34766 5.42835 7.56641 5.92314C6.78516 6.41793 6.10482 7.0234 5.52539 7.73955C4.95247 8.45569 4.50651 9.25647 4.1875 10.1419C3.86849 11.0208 3.70898 11.955 3.70898 12.9446C3.70898 14.097 3.92057 15.1777 4.34375 16.1868C4.77344 17.1894 5.36589 18.0716 6.12109 18.8333C6.88281 19.5885 7.76497 20.1777 8.76758 20.6009C9.77018 21.0306 10.8477 21.2454 12 21.2454C13.1523 21.2454 14.2298 21.0306 15.2324 20.6009C16.2415 20.1777 17.1237 19.5885 17.8789 18.8333C18.6406 18.0716 19.2331 17.1894 19.6562 16.1868C20.0859 15.1777 20.3008 14.097 20.3008 12.9446C20.3008 12.0201 20.1576 11.1412 19.8711 10.3079C19.5846 9.46806 19.1842 8.70309 18.6699 8.01298C18.1556 7.32288 17.5534 6.73043 16.8633 6.23564C16.6615 6.0859 16.5312 5.90361 16.4727 5.68877C16.4206 5.47392 16.4564 5.26559 16.5801 5.06377C16.7038 4.86845 16.8828 4.75127 17.1172 4.7122C17.3516 4.66663 17.5762 4.72522 17.791 4.88798C18.6309 5.49345 19.3633 6.21611 19.9883 7.05595C20.6133 7.88929 21.0983 8.80726 21.4434 9.80986C21.7884 10.806 21.9609 11.8509 21.9609 12.9446C21.9609 14.3053 21.7005 15.5879 21.1797 16.7923C20.6589 17.9967 19.9395 19.0579 19.0215 19.9759C18.1035 20.8873 17.0423 21.6035 15.8379 22.1243C14.64 22.6451 13.3607 22.9056 12 22.9056C10.6393 22.9056 9.35677 22.6451 8.15234 22.1243C6.95443 21.6035 5.89648 20.8873 4.97852 19.9759C4.06055 19.0579 3.34115 17.9967 2.82031 16.7923C2.29948 15.5879 2.03906 14.3053 2.03906 12.9446ZM9.39258 16.9583C9.18424 16.9583 9.01823 16.8932 8.89453 16.763C8.77734 16.6263 8.71875 16.4505 8.71875 16.2356V10.7181H8.69922L7.73242 11.4407C7.67383 11.4798 7.61849 11.5123 7.56641 11.5384C7.51432 11.5579 7.45247 11.5677 7.38086 11.5677C7.24414 11.5677 7.13021 11.5221 7.03906 11.431C6.94792 11.3333 6.90234 11.2129 6.90234 11.0696C6.90234 10.8613 7.00326 10.6823 7.20508 10.5325L8.30859 9.7122C8.46484 9.59502 8.61784 9.49736 8.76758 9.41923C8.92383 9.34111 9.09961 9.30205 9.29492 9.30205C9.53581 9.30205 9.72461 9.37041 9.86133 9.50712C10.0046 9.63733 10.0762 9.82288 10.0762 10.0638V16.2356C10.0762 16.444 10.0143 16.6165 9.89062 16.7532C9.77344 16.8899 9.60742 16.9583 9.39258 16.9583ZM14.1973 17.0169C13.7285 17.0169 13.263 16.8867 12.8008 16.6263C12.3451 16.3658 12.0553 16.0013 11.9316 15.5325C11.9186 15.4804 11.9056 15.4251 11.8926 15.3665C11.8861 15.3079 11.8828 15.2493 11.8828 15.1907C11.8828 15.0149 11.9316 14.8782 12.0293 14.7806C12.1335 14.6764 12.2702 14.6243 12.4395 14.6243C12.6999 14.6243 12.8952 14.7643 13.0254 15.0442C13.123 15.2981 13.2695 15.5097 13.4648 15.679C13.6602 15.8483 13.901 15.9329 14.1875 15.9329C14.5651 15.9329 14.8548 15.7832 15.0566 15.4837C15.2585 15.1777 15.3594 14.8196 15.3594 14.4095C15.3594 14.0188 15.2617 13.677 15.0664 13.3841C14.8776 13.0846 14.5911 12.9349 14.207 12.9349C14.0117 12.9349 13.8327 12.9804 13.6699 13.0716C13.5072 13.1627 13.3672 13.2864 13.25 13.4427C13.1523 13.5599 13.0579 13.651 12.9668 13.7161C12.8822 13.7747 12.7617 13.804 12.6055 13.804C12.3906 13.804 12.2279 13.7324 12.1172 13.5892C12.013 13.4459 11.9674 13.2636 11.9805 13.0423L12.1953 10.2005C12.2214 9.67965 12.4785 9.41923 12.9668 9.41923H15.7988C15.9616 9.41923 16.0918 9.47132 16.1895 9.57548C16.2871 9.67314 16.3359 9.80335 16.3359 9.96611C16.3359 10.1289 16.2871 10.2623 16.1895 10.3665C16.0918 10.4642 15.9616 10.513 15.7988 10.513H13.3086L13.1426 12.7395H13.1816C13.3118 12.4856 13.5039 12.2903 13.7578 12.1536C14.0182 12.0104 14.3112 11.9388 14.6367 11.9388C15.2812 11.9388 15.7793 12.1797 16.1309 12.6614C16.4889 13.1432 16.668 13.7129 16.668 14.3704C16.668 15.1321 16.4466 15.7636 16.0039 16.2649C15.5612 16.7662 14.959 17.0169 14.1973 17.0169Z" fill="#262626" fill-opacity="0.85"/></svg>