<svg fill="#262626" width="32" height="32" viewBox="0 0 40 40" xmlns="http://www.w3.org/2000/svg"><path fill-rule="evenodd" clip-rule="evenodd" d="M20 40C31.0457 40 40 31.0457 40 20C40 8.9543 31.0457 0 20 0C8.9543 0 0 8.9543 0 20C0 31.0457 8.9543 40 20 40ZM15.9133 26.4114C16.1817 26.6748 16.5235 26.8064 16.9387 26.8064C17.3539 26.8064 17.6957 26.6748 17.9641 26.4114C18.2325 26.1481 18.3666 25.8215 18.3666 25.4316V14.6157C18.3666 14.2207 18.2325 13.8916 17.9641 13.6282C17.6957 13.3649 17.3539 13.2333 16.9387 13.2333C16.5235 13.2333 16.1817 13.3649 15.9133 13.6282C15.6449 13.8916 15.5107 14.2207 15.5107 14.6157V25.4316C15.5107 25.8215 15.6449 26.1481 15.9133 26.4114ZM22.0429 26.4114C22.3112 26.6748 22.6505 26.8064 23.0607 26.8064C23.4759 26.8064 23.8177 26.6748 24.086 26.4114C24.3544 26.1481 24.4886 25.8215 24.4886 25.4316V14.6157C24.4886 14.2207 24.3544 13.8916 24.086 13.6282C23.8177 13.3649 23.4759 13.2333 23.0607 13.2333C22.6505 13.2333 22.3112 13.3649 22.0429 13.6282C21.7745 13.8916 21.6403 14.2207 21.6403 14.6157V25.4316C21.6403 25.8215 21.7745 26.1481 22.0429 26.4114Z" fill="#262626"/></svg>