<svg fill="none" width="16" height="16" viewBox="0 0 20 20" xmlns="http://www.w3.org/2000/svg">
    <g id="Voice to 2">
        <path id="Star 4"
              d="M3.52196 6.85586C3.61595 6.60371 3.97259 6.60371 4.06658 6.85586L4.69179 8.5332C4.78997 8.79661 4.99774 9.00438 5.26115 9.10256L6.93849 9.72777C7.19064 9.82176 7.19064 10.1784 6.9385 10.2724L5.26115 10.8976C4.99774 10.9958 4.78997 11.2035 4.69179 11.467L4.06658 13.1443C3.97259 13.3965 3.61595 13.3965 3.52196 13.1443L2.89675 11.467C2.79857 11.2036 2.5908 10.9958 2.32739 10.8976L0.650047 10.2724C0.397901 10.1784 0.397901 9.82176 0.650046 9.72777L2.32739 9.10256C2.5908 9.00438 2.79857 8.79661 2.89675 8.5332L3.52196 6.85586Z"
              fill="#FFF"/>
        <path id="Vector"
              d="M10.7387 2.74316L10.7387 18.0904M7.12756 6.35428L7.1276 7.25705M7.12756 13.5765L7.1276 14.4793M14.3498 6.35428L14.3498 14.4793M17.9609 9.514L17.9609 11.3196"
              stroke="#FFF" stroke-width="1.5" stroke-linecap="round"/>
    </g>
</svg>
