<svg t="1764119090334" class="icon" viewBox="0 0 1024 1024" version="1.1" xmlns="http://www.w3.org/2000/svg" p-id="5965" width="23" height="23"><path d="M506.180298 827.066632l-84.6867-80.940685c-21.405801-20.469297-21.405801-53.648288 0.267573-74.117585 7.893389-7.49203 18.061144-12.442122 28.897831-14.448916l149.037889-25.954534 46.557616-82.412333c-23.011236-4.816305-46.958976-7.358244-71.575646-7.358244h-202.017246C185.093285 541.834335 32.576953 691.407369 32.576953 875.36347v19.934152c0 95.790959 150.241965 95.790959 340.084662 95.790959H503.504573l23.680167-94.854455c5.886595-24.884244-2.006794-50.972563-21.004442-69.167494zM477.817612 511.866214c132.18082 0 239.611184-107.564149 239.611183-239.611184 0-132.18082-107.430363-239.611184-239.611183-239.611184S238.206428 140.207996 238.206428 272.25503c0 132.18082 107.430363 239.611184 239.611184 239.611184z" p-id="5966" fill="#515151"></path><path d="M991.423047 709.869872l-165.627385-24.081526-74.117585-150.108179-73.983799 150.108179-165.627385 24.081526 119.872485 116.795401-28.362686 164.958453L751.678077 913.760125l148.101385 77.863601-28.2289-164.958453z" p-id="5967" fill="#515151"></path></svg>