<svg t="1758435483545" class="icon" viewBox="0 0 1024 1024" version="1.1" xmlns="http://www.w3.org/2000/svg" p-id="9514" width="200" height="200"><path d="M941.568 156.16H508.928L484.352 24.064H82.432C37.888 24.064 2.048 59.904 2.048 104.448v683.008c0 44.544 35.84 80.384 80.384 80.384h366.08l-29.696 132.608h522.24c44.544 0 80.384-35.84 80.384-80.384V236.544c0.512-44.032-35.328-80.384-79.872-80.384zM418.816 419.328H310.784l-35.84 244.224H172.032l35.84-244.224H94.72l15.36-80.384h329.216l-20.48 80.384z m563.712 499.712h-0.512c0 22.016-17.92 39.936-40.448 39.936H470.016l19.968-92.16h151.04l-29.696-164.352-24.576-137.728-31.744-177.664-0.512 2.56-3.584-18.944 1.024 0.512-31.232-175.104H942.08c22.016 0 39.936 17.92 39.936 40.448v682.496z" fill="#7dc5eb" p-id="9515"></path><path d="M928.256 437.248v200.192c0 16.384-13.312 29.696-29.696 29.696-16.384 0-29.696-13.312-29.696-29.696V437.248c0-16.384 13.312-29.696 29.696-29.696 8.192 0 15.36 3.072 20.992 8.704 5.632 5.632 8.704 12.8 8.704 20.992zM803.328 345.6v383.488c0 16.384-13.312 29.696-29.696 29.696-16.384 0-29.696-13.312-29.696-29.696V345.6c0-16.384 13.312-29.696 29.696-29.696 8.192 0 15.36 3.072 20.992 8.704 5.12 5.632 8.704 12.8 8.704 20.992zM678.4 437.248v200.192c0 16.384-13.312 29.696-29.696 29.696-16.384 0-29.696-13.312-29.696-29.696V437.248c0-16.384 13.312-29.696 29.696-29.696 8.192 0 15.36 3.072 20.992 8.704 5.12 5.632 8.704 12.8 8.704 20.992z" fill="#7dc5eb" p-id="9516"></path></svg>